<svg id="Layer_1" enable-background="new 0 0 450 450" height="512" viewBox="0 0 450 450" width="512" xmlns="http://www.w3.org/2000/svg"><g><g><path d="m98.5 273.8c9.7-9.7 23.1-15.7 38-15.7 14.8 0 28.3 6 38 15.7s15.7 23.1 15.7 38-6 28.3-15.7 38-23.1 15.7-38 15.7-28.3-6-38-15.7-15.7-23.1-15.7-38 6-28.3 15.7-38z" fill="#2e343a"/><path d="m136.5 277.5c-9.4 0-18 3.8-24.2 10s-10 14.8-10 24.2 3.8 18 10 24.2 14.8 10 24.2 10 18-3.8 24.2-10 10-14.8 10-24.2-3.8-18-10-24.2c-6.2-6.1-14.7-10-24.2-10z" fill="#a2abb8"/><path d="m124.5 299.8c3.1-3.1 7.3-5 12-5s8.9 1.9 12 5 5 7.3 5 12-1.9 8.9-5 12-7.3 5-12 5-8.9-1.9-12-5-5-7.3-5-12c.1-4.7 2-8.9 5-12z" fill="#e6e6e6"/></g><g><path d="m349.6 273.8c9.7-9.7 23.1-15.7 38-15.7 14.8 0 28.3 6 38 15.7s15.7 23.1 15.7 38-6 28.3-15.7 38-23.1 15.7-38 15.7c-14.8 0-28.3-6-38-15.7s-15.7-23.1-15.7-38 6-28.3 15.7-38z" fill="#2e343a"/><path d="m387.6 277.5c-9.5 0-18 3.8-24.2 10s-10 14.8-10 24.2 3.8 18 10 24.2 14.8 10 24.2 10c9.5 0 18-3.8 24.2-10s10-14.8 10-24.2-3.8-18-10-24.2c-6.2-6.1-14.8-10-24.2-10z" fill="#a2abb8"/><path d="m375.6 299.8c3.1-3.1 7.3-5 12-5s8.9 1.9 12 5 5 7.3 5 12-1.9 8.9-5 12-7.3 5-12 5-8.9-1.9-12-5-5-7.3-5-12 1.9-8.9 5-12z" fill="#e6e6e6"/></g><path d="m305.6 105.3h-46.4c-3.2 0-5.9 2.6-5.9 5.9 0 3.2 2.6 5.9 5.9 5.9h46.4z" fill="#1c4257"/><path d="m45.2 175.8c0-2.6 2.1-4.7 4.7-4.7s4.7 2.1 4.7 4.7v.6h18.1v-.6c0-2.6 2.1-4.7 4.7-4.7s4.7 2.1 4.7 4.7v21.4l22.7 13.1c2.2 1.3 3 4.1 1.7 6.4-1.2 2-3.5 2.8-5.6 2.1l-10.4 15.6c.9 1.4 1 3.3.1 4.8-1.3 2.2-4.1 3-6.3 1.7l-36.1-20.9c-1.6-.7-2.7-2.4-2.7-4.3z" fill="#fba31b"/><path d="m134.9 200.3c-2.6 0-4.7-2.1-4.7-4.7v-13.8c0-5.1 2.1-9.7 5.4-13.1s8-5.4 13.1-5.4h61.7c5.1 0 9.7 2.1 13.1 5.4 3.4 3.4 5.4 8 5.4 13.1v13.8c0 2.6-2.1 4.7-4.7 4.7-11.3 0-77.9 0-89.3 0z" fill="#1c4257"/><path d="m101.7 180.5h-76.3c-4.4 0-8.5-1.8-11.4-4.7s-4.7-7-4.7-11.4v-62.2c0-4.4 1.8-8.5 4.7-11.4s7-4.7 11.4-4.7h76.3c4.4 0 8.5 1.8 11.4 4.7s4.7 7 4.7 11.4v62.2c0 4.4-1.8 8.5-4.7 11.4-2.9 2.8-6.9 4.7-11.4 4.7z" fill="#ffd47d"/><path d="m9.3 112.4h108.6v9.3h-108.6z" fill="#d78e44"/><path d="m313.6 301.8c-.4 2.1-2.3 3.7-4.6 3.7h-236.5c-2.6 0-4.7-2.1-4.7-4.7 0-.1 0-.2 0-.3-.1-6.5-.5-91.8 65.9-109.5.4-.1.8-.1 1.2-.1h89.3c4.3 0 5.9 2.3 5.9 6.6 0 1.8-.5 4.2-1.2 7.2-.6 2.9-1.4 6.5-1.9 10.4-1.7 16.1 3.5 38.7 57.7 44.7 6.3-2 48.2-18.6 15.2-99.5-1-2.4.2-5.1 2.6-6.1s5.1.2 6.1 2.6l14.6-4.6c0-1.9 1.1-3.7 3-4.4 2.4-.9 5.1.3 6 2.7l29.9 79.7c.5 1.3.4 2.7-.3 3.9l-.1.2c-.8 1.5-2.4 2.4-4 2.4 3.6 16.6 9.6 66.5-44.1 65.1z" fill="#ffc107"/><path d="m313.6 301.8c-.4 2.1-2.3 3.7-4.6 3.7h-10.9c-1.5-5.7-2.3-11.6-2.3-17.6 0-18 7.1-35.2 19.9-48 11.5-11.5 26.6-18.4 42.8-19.7l3.8 10c.5 1.3.4 2.7-.3 3.9l-.1.2c-.8 1.5-2.4 2.4-4 2.4 3.4 16.6 9.4 66.5-44.3 65.1z" fill="#fba31b"/><path d="m132.8 216.4h54.9c3.9 0 7.4 1.6 9.9 4.1s4.1 6.1 4.1 9.9v40.6c0 3.9-1.6 7.4-4.1 10-2.6 2.5-6.1 4.1-9.9 4.1h-67.4c-1.4 0-2.9-.3-4.4-.7-2.5-.8-4.9-2.2-6.7-4.1-2-2.1-3.3-4.8-3.3-7.7 0-1 .2-2 .5-3l12.5-40.5c.9-3 2.3-6 4.3-8.3 2.4-2.7 5.5-4.4 9.6-4.4z" fill="#fba31b"/><g fill="#fff"><path d="m183.3 231c2.6 0 4.7 2.1 4.7 4.7s-2.1 4.7-4.7 4.7h-45.2c-2.6 0-4.7-2.1-4.7-4.7s2.1-4.7 4.7-4.7z"/><path d="m183.3 246.3c2.6 0 4.7 2.1 4.7 4.7s-2.1 4.7-4.7 4.7h-51.8c-2.6 0-4.7-2.1-4.7-4.7s2.1-4.7 4.7-4.7z"/><path d="m183.3 261.6c2.6 0 4.7 2.1 4.7 4.7s-2.1 4.7-4.7 4.7h-59.2c-2.6 0-4.7-2.1-4.7-4.7s2.1-4.7 4.7-4.7z"/></g><path d="m292.2 105.3h20.8c7 0 13.4 2.9 18 7.5s7.5 11 7.5 18v6.9c0 7-2.9 13.4-7.5 18s-11 7.5-18 7.5h-20.8c-2.6 0-4.7-2.1-4.7-4.7v-48.5c0-2.6 2.1-4.7 4.7-4.7z" fill="#fba31b"/><path d="m406.8 251.5-39.8 39.7-39.7 39.8c-1.8 1.8-4.8 1.8-6.6 0-11.9-11.9-17.8-27.5-17.8-43s5.9-31.1 17.8-43 27.5-17.8 43-17.8c15.6 0 31.1 5.9 43 17.8 1.9 1.7 1.9 4.7.1 6.5z" fill="#fdb60e"/></g></svg>