<svg width="426" height="399" viewBox="0 0 426 399" fill="none" xmlns="http://www.w3.org/2000/svg">
<path d="M269.7 236.6C269.1 239.7 267.9 242.7 266.3 244.9C259.5 254.7 242.3 266.6 230.2 261.6C223.9 259 220 250.4 223.9 244.8C226.7 240.7 232.2 239.5 236.3 236.7C243.5 231.7 246.6 221.5 254.9 218.7C268.2 214.1 271.9 226.2 269.7 236.6Z" fill="#E0ADAD"/>
<path d="M50.3 223.1C50.3 223.8 50.3 224.5 50 225.2C49.4 227.2 47.9 228.8 46.4 230.3C40.4 236.3 18.7 260.9 13.8 241.5C11.2 230.9 25.8 216.7 35 214.9C38.6 214.2 42.5 214.3 45.7 216.1C48.3 217.5 50.1 220.2 50.3 223.1Z" fill="#E0ADAD"/>
<path d="M307.5 333.7C304.6 335.6 301.4 337 298.6 338.9C295.3 341.2 289.8 346.3 285.4 345.4C281.9 344.7 279.6 340.1 279.9 336.9C280.2 333.6 282.2 330.8 284.6 328.6C287 326.4 289.9 324.8 292.5 322.9C294.6 321.4 296.6 319.7 298.9 318.5C301.5 317.2 304.3 316.6 307.2 316.7C309.5 316.8 311.9 317.4 313.5 319.1C315.3 321.1 315.4 324.2 314.3 326.6C313.2 329 311.2 331 309.1 332.5C308.6 333 308 333.4 307.5 333.7Z" fill="#E0ADAD"/>
<path d="M139.9 95.4001C139.7 95.6001 139.4 95.9001 139.2 96.1001C136.5 98.9001 133.7 101.8 130.1 103.2C126.5 104.6 121.8 104.1 119.4 101C118.6 100 118.2 98.8001 117.9 97.6001C116.8 92.3001 120.1 86.9001 124.2 83.4001C129.7 78.6001 136.1 75.3001 141.9 70.6001C145.4 67.8001 149.4 65.3001 153.9 65.0001C158.4 64.7001 163.3 67.3001 164.4 71.6001C165.2 74.8001 163.8 78.3001 161.6 80.7001C159.4 83.2001 156.4 84.8001 153.5 86.4001C148.7 89.2001 143.9 91.5001 139.9 95.4001Z" fill="#E0ADAD"/>
<path d="M311.6 15.3001C309.8 13.5001 309.8 10.5001 311.6 8.7001C313.4 6.9001 316.4 6.9001 318.2 8.7001" fill="black"/>
<path d="M405.6 112.5C405.6 115.1 403.5 117.2 400.9 117.2C398.3 117.2 396.2 115.1 396.2 112.5C396.2 109.9 398.3 107.8 400.9 107.8C403.5 107.7 405.6 109.9 405.6 112.5Z" stroke="black" stroke-width="0.5" stroke-miterlimit="10"/>
<path d="M221.398 191.908C224.161 187.645 222.945 181.948 218.682 179.185C214.418 176.421 208.722 177.637 205.958 181.901C203.195 186.164 204.411 191.861 208.674 194.624C212.938 197.388 218.634 196.172 221.398 191.908Z" stroke="black" stroke-width="0.5" stroke-miterlimit="10"/>
<path d="M195.1 190.3C196.8 189.5 198.8 190.3 199.6 191.9C200.4 193.6 199.6 195.6 198 196.4C196.3 197.2 194.3 196.4 193.5 194.8C192.7 193 193.4 191.1 195.1 190.3Z" fill="black"/>
<path d="M53.9 87.4001C55.6 86.6001 57.6 87.4001 58.4 89.0001C59.2 90.7001 58.4 92.7001 56.8 93.5001C55.1 94.3001 53.1 93.5001 52.3 91.9001C51.5 90.1001 52.2 88.1001 53.9 87.4001Z" fill="black"/>
<path d="M326.2 4.9001L300.8 30.3001" stroke="black" stroke-width="0.5" stroke-miterlimit="10"/>
<path d="M336.3 0.600098L310.9 26.0001" stroke="black" stroke-width="0.5" stroke-miterlimit="10"/>
<path d="M425.1 104.1L400.9 128.2" stroke="black" stroke-width="0.5" stroke-miterlimit="10"/>
<path d="M244.9 247.6L220.8 271.7" stroke="black" stroke-width="0.5" stroke-miterlimit="10"/>
<path d="M64.3 108.2L68.9 99.1001L75.3 108.2L80.3 99.1001L85.4 108.2L90.7 99.1001L96.2 108.2L101.1 99.1001" stroke="black" stroke-width="0.5" stroke-miterlimit="10"/>
<path d="M153 111.9L198.8 103.3L179.6 138L166.1 123L162.5 129.7L160 117.5L153 111.9Z" fill="#FEE99E" stroke="black" stroke-width="0.5" stroke-miterlimit="10"/>
<path d="M191.9 108.2L166.1 123L164.4 135.4L156.6 130.3L160 117.5L191.9 108.2Z" fill="black"/>
<path d="M174 397.6L191.2 271.6C191.2 271.2 191.8 271.2 191.9 271.6L210.6 397.6" stroke="#E0ADAD" stroke-width="3" stroke-miterlimit="10"/>
<path d="M80.6 397L101.3 313.4L130 397.5" stroke="#E0ADAD" stroke-width="3" stroke-miterlimit="10"/>
<path d="M156.9 259.2C156.7 253.6 157 248 158.6 242.6C159.5 239.6 161.2 235.4 164 233.7C167 231.9 171.7 232.7 174.5 234.6C178.2 237.1 180.1 241.7 180.3 246.1C181 258.1 176 270.7 173.1 282.2C172.5 284.6 171.7 287.3 169.7 288.8C167 290.9 163.1 290.2 160.1 288.7C159.4 288.3 158.6 287.9 158.1 287.2C157.3 286.1 157.4 284.7 157.5 283.3C157.7 280.4 157.7 277.6 157.7 274.7C157.6 269.5 157.1 264.3 156.9 259.2Z" fill="white" stroke="#222221" stroke-width="0.5" stroke-miterlimit="10"/>
<path d="M167.1 276.4C164.2 275.8 161.3 275 158.4 274.2C158.2 274.1 157.9 274.1 157.7 274C157.7 274.2 157.7 274.4 157.7 274.7C157.8 277.6 157.7 280.4 157.5 283.3C157.4 284.6 157.3 286.1 158.1 287.2C158.6 287.9 159.3 288.3 160.1 288.7C163.1 290.2 167 290.9 169.7 288.8C171.7 287.3 172.4 284.6 173.1 282.2C173.5 280.7 173.9 279.2 174.3 277.6C171.9 277.3 169.5 276.9 167.1 276.4Z" fill="#007CFF" stroke="black" stroke-width="0.5" stroke-miterlimit="10"/>
<path d="M169 335.3C173.1 334.3 172.8 333.6 176.8 332.2C176.8 350.5 181.7 381.9 181.6 387.1C176.5 387.5 173.8 391.9 168.6 391.8C164.5 385.3 161.1 368.4 158.8 361.4C158.3 359.8 161 345.7 158.4 336.5C163.6 335.6 164 336.5 169 335.3Z" fill="white" stroke="#222221" stroke-width="0.5" stroke-miterlimit="10"/>
<path d="M175 371.9C170.8 372.6 166.6 373.4 162.4 373.9C164.2 380.7 166.4 388 168.8 391.8C174 392 176.7 387.5 181.8 387.1C181.8 385 181.1 378.9 180.2 371.1C178.4 371.3 176.7 371.6 175 371.9Z" fill="#007CFF" stroke="black" stroke-width="0.5" stroke-miterlimit="10"/>
<path d="M73.1 317C76.4 318.2 79.8 319.2 83.2 320.1C89.8 320.6 96.5 320.8 103.2 320.7C113.6 320.6 124.2 320.2 134.4 318.3C139.5 317.4 144.5 316 149.3 313.9C153.3 312.2 157.8 309.9 160.6 306.4C162.9 303.6 165 299 165.4 294.7C161.4 282.1 150 280.3 139.8 274.5C128.7 268.2 119.3 259.1 112.7 248.2C106.6 238.1 103 226.8 98.1 216.1C93.5 206.1 87.6 201 77.1 197.3C69.3 194.6 60.8 192.7 53 195.3C42 199.2 35.5 210.7 33.6 222C30.7 239.5 32.7 261 38.2 277.9C43.4 294 56.7 311.2 73.1 317Z" fill="#007CFF" stroke="black" stroke-width="0.5" stroke-miterlimit="10"/>
<path d="M100.8 301.5C104.2 301.7 107.7 302 111.1 302.5C114.1 302.9 117.2 303.3 119.8 305C120.4 305.4 121 305.9 120.9 306.6C120.8 307.2 120.3 307.6 119.7 307.9C115.1 310.5 108.5 313.2 103 312.6C98.2 312 92.6 312.3 88 310.8C85.7 310 83.4 308.8 82.1 306.8C81.1 305.3 80.3 301.8 82.5 300.8C84 300.2 88.5 301.3 90.2 301.3C93.8 301.2 97.3 301.3 100.8 301.5Z" fill="#222221"/>
<path d="M181.2 257.7C179.9 263.2 178.6 269.2 177.1 274.6C169.9 273.1 162.6 271.2 155.3 269.7C151.6 268.9 151.5 274.8 150 277.1C148.5 279.4 146.5 281.2 144.4 282.9C140.1 286.4 133.5 287.7 128 287.6C121.5 287.5 114.7 284.5 111.8 278.6C109.5 273.9 110.1 268.2 111.5 263.1C116.6 244.4 130.4 229.4 145.1 216.8C152.4 210.6 161.5 206 171.2 209.4C186.9 214.9 186.3 232.8 183.6 246.3C182.8 250.1 182 253.9 181.2 257.7Z" fill="#7696EA" stroke="black" stroke-width="0.5" stroke-miterlimit="10"/>
<path d="M175.2 220.2C178.1 220.2 180.8 218.2 182.4 215.7C182.8 215 183.2 214.1 183.3 213.3C183.5 211.9 182.9 210.4 182.1 209.2C179.6 205 172.7 200.1 169.3 206.1C166.5 211.2 168.2 220.1 175.2 220.2Z" fill="#222221"/>
<path d="M159.2 296.9C165.2 298.3 171.3 298.9 177.3 299.8C180.5 300.3 187 302.1 190 299.9C193.8 297.1 187.6 295.4 184.8 293.9C180 291.2 175 288.6 170.2 286C165.7 283.6 159.9 278.4 155.3 283.4C152.3 286.6 152 291.8 151.7 295.9C154.2 295.9 156.7 296.3 159.2 296.9Z" fill="#222221"/>
<path d="M62.5 275.4C63.9 269.5 69.9 269.6 77.6 270.3C85.9 271.1 94.2 270.1 102.5 269.6C117.2 268.7 131.9 269.5 146.6 270.3C152.3 270.6 158.3 271 163.3 273.8C168.3 276.7 171.8 281.8 173.8 287.2C175.8 292.6 176.5 298.4 177.2 304.2C179 319.4 180.8 334.6 182.6 349.8C183.1 353.7 183.6 357.5 184 361.4C184.4 365.8 184.2 365.7 179.8 366.4C172.4 367.5 165.1 368.5 157.7 369.5C154.5 356.6 151.2 343.7 149.7 330.5C149.5 328.7 145.8 306.8 145.2 306.9C132.1 309 118.7 309.5 105.4 308.4C96 307.6 86.5 306 78.3 301.4C71.1 297.3 63.7 289.7 62.5 281.2C62.1 278.8 62.2 276.9 62.5 275.4Z" fill="#7696EA" stroke="black" stroke-width="0.5" stroke-miterlimit="10"/>
<path d="M169.8 397.7C169.9 397.7 170 397.8 170.1 397.8H174.5C183.9 397.2 193.3 397.9 202.7 397.2C204 397.1 205.4 396.9 206.5 396.1C208.9 394.2 206.8 391.4 204.6 390.5C196.8 387.4 186.7 387.9 181.5 380.2C176.5 383.1 171.2 385.5 165.7 387.4C166.3 387.2 166.7 392 166.8 392.5C167.3 394.3 168.1 396.9 169.8 397.7Z" fill="#222221"/>
<path d="M82.5 176.7C79.2 177.2 75.9 178 72.9 179.5C68.7 181.5 65.1 184.4 62 187.9C57 193.6 55 201.2 53.3 208.4C51.1 217.6 48.9 226.9 46.8 236.1C46.3 238.3 45.8 240.5 45.7 242.7C45.6 246.3 46.6 250.8 47.5 254.3C47.9 256 48.5 257 49.4 257.5C53.1 260.1 56.2 263.5 57.7 267.8C58.2 269.2 58.7 270.6 59.2 272.1C59.8 273.7 60.1 274.8 60.5 275.6C62.9 275.6 65.3 275.6 67.7 275.6C75.9 275.6 83.2 275.7 91 273.4C98.9 271.1 107.4 271.5 115.4 269.4C116 269.2 116.7 269 117 268.4C117.3 267.6 117.1 265.5 117.2 264.6C117.3 262.6 117.4 260.5 117.5 258.5C117.6 254.5 117.5 250.6 117.5 246.6C117.4 238.9 117.1 231.1 117.6 223.4C118.1 217.9 118.3 212.3 118.4 206.8C126.5 206.4 134.7 204.9 142.7 203.9C149.7 203 156.6 202.5 161.5 196.8C162 196.2 162.5 195.5 162.9 194.7C166.4 187.9 161.3 180.3 154.2 179.1C152.8 178.8 151.3 178.8 149.9 178.8C138.3 178.8 126.8 178.4 115.2 177.9C108.7 177.6 104.2 177.8 97.9 176.5C92.5 175.6 87.7 176.7 82.5 176.7Z" fill="#FCA351" stroke="black" stroke-width="0.5" stroke-miterlimit="10"/>
<path d="M146.7 183.8C147 179.2 148.4 174.4 149.4 170.1C150.9 163.7 152.6 157.4 153.9 151C155 145.4 155.7 139.6 155.5 133.9C155.3 129.5 156.5 124.9 159.5 121.6C160 121.1 160.5 120.6 161.1 120.3C161.8 120 162.6 120 163.4 120C165.4 120.1 167.1 120.4 169 121.1C168.3 121.6 167.6 122 166.9 122.5C166.3 122.9 166.2 123 166.7 123.5C167.2 124.1 168 124.6 168.3 125.3C169 126.4 168.2 128.6 167.8 129.8C167.3 131.4 166.5 132.9 165.5 134.3C165.1 134.8 164.8 135.3 164.6 135.9C164.5 136.3 164.5 136.6 164.5 137C164.4 141.8 164.8 146.8 165.5 151.5C166.2 156.6 166.7 161.8 167 167C167 167.9 167.1 168.8 167.1 169.7C167.4 178.4 167.4 187.3 162.7 194.8C162 195.9 161.2 197 160.2 197.9C154.5 202.9 148.2 195 147.1 189.7C146.7 187.8 146.6 185.8 146.7 183.8Z" fill="white" stroke="#222221" stroke-width="0.5" stroke-miterlimit="10"/>
<path d="M81.8 203.8C80.5 205.4 79.2 206.9 78.5 208.8C78.1 209.9 77.9 211 77.7 212.2C75.6 223.7 73.7 235.4 70.6 246.7" stroke="#131834" stroke-width="0.5" stroke-miterlimit="10"/>
<path d="M159.1 225.4C156.3 237.3 150 255.3 149.9 267.5" stroke="#131834" stroke-width="0.5" stroke-miterlimit="10"/>
<path d="M35.4 265.3C55.3 260.8 77.8 257.1 95.8 265.5C107.5 271 115.4 281.2 117.6 292.1C119.8 303 118 308.2 111.3 317.8" stroke="black" stroke-width="3" stroke-miterlimit="10"/>
<path d="M45.1 300.4C48.2 308.8 55.3 315.2 64.1 317.2H64.2C77 320.2 90.1 320.8 103.2 320.7C109.7 320.7 116.3 320.5 122.8 319.9C121.4 319.3 120 318.7 118.6 318C106.5 312.1 94.6 305.3 84.3 296.5C74.7 288.4 66.1 279 59.3 268.4C56 263.3 53.3 257.9 50.7 252.4C48.2 247.2 45.7 242 43.5 236.7C40.3 229.3 37.2 221.1 36.3 212.9C35.1 215.8 34.3 218.9 33.7 222C30.8 239.5 32.8 261 38.3 277.9C40.5 284.9 42.3 293 45.1 300.4Z" fill="#007CFF" stroke="black" stroke-width="0.5" stroke-miterlimit="10"/>
<path d="M150.2 271.5C137.4 269.5 129.1 271.3 112.6 271.3" stroke="#131834" stroke-width="0.5" stroke-miterlimit="10"/>
<path d="M120.8 264.5C116.6 262.4 112.2 260.7 107.6 259.4C105.5 258.8 103.4 258.3 101.3 257.5C99 256.6 96.9 255.3 94.7 254C90.5 251.4 86.3 248.9 82.2 246.3C78.8 244.2 75.4 242.2 71.9 240.4C70.1 239.5 68.2 238.7 66.3 238C61.1 236.2 52 233.9 47.6 238.3C46.7 239.2 46 240.2 45.6 241.3C47.9 246.2 50.2 251.2 52.7 256C54.2 256.8 55.8 257.4 57.4 257.9C63.9 260 70.7 260.9 77.5 261.7C84.2 262.5 91.1 263 97 266.5C103.5 270.4 112.5 270.4 119.8 268.8C121.1 268.5 122.7 267.7 122.6 266.4C122.6 265.5 121.7 264.9 120.8 264.5Z" fill="white" stroke="#222221" stroke-width="0.5" stroke-miterlimit="10"/>
<path d="M18 397.6L36 271.6C36 271.2 36.6 271.2 36.7 271.6L56.3 397.6" stroke="#E0ADAD" stroke-width="3" stroke-miterlimit="10"/>
<path d="M203.1 267.7H24.9V273.2H203.1V267.7Z" fill="#E0ADAD"/>
<path d="M204.5 267.7H23.6" stroke="#131834" stroke-width="0.5" stroke-miterlimit="10"/>
<path d="M34 273.1H40.6" stroke="#131834" stroke-width="0.5" stroke-miterlimit="10"/>
<path d="M188.3 273.1H194.9" stroke="#131834" stroke-width="0.5" stroke-miterlimit="10"/>
<path d="M196.9 264.5H115.7C114.9 264.5 114.2 265 114.2 265.7V266.8C114.2 267.5 114.9 268 115.7 268H196.9V264.5Z" fill="black"/>
<path d="M196.8 267.1H125.8L132 226.3C132.2 224.9 133.4 223.8 134.8 223.8H200.2C201.9 223.8 203.2 225.3 202.9 227L196.8 267.1Z" fill="white" stroke="#222221" stroke-width="0.5" stroke-miterlimit="10"/>
<path d="M170.5 244.2L173.6 246.8" stroke="#131834" stroke-width="0.5" stroke-miterlimit="10"/>
<path d="M166.5 244.2L169.6 246.8" stroke="#131834" stroke-width="0.5" stroke-miterlimit="10"/>
<path d="M162.4 244.2L165.5 246.8" stroke="#131834" stroke-width="0.5" stroke-miterlimit="10"/>
<path d="M109.3 143.7C107.9 140.7 105.1 144.1 101.8 143.7C99 143.3 96.8 142.9 94.1 143.9C91.7 144.8 89.5 146.6 88.3 148.9C88 149.5 87.7 150.2 87.5 150.8C87 152.7 86.6 154.7 86.4 156.7C86.2 158.4 86.4 160 86.5 161.6C86.6 162.3 86.7 163 86.8 163.6C86.8 166.9 87 170 85.6 173.3C85 174.8 84.1 176.2 83 177.4C82.6 178 82 178.5 81.3 178.9C81.5 179 81.7 179.2 81.8 179.4C85 183.5 91.3 184 96.1 183.6C98.4 183.4 101.2 182.9 103.6 181.8C101.7 179 102.5 175.9 103.3 172.3C103.4 172 103.8 170.9 104.1 169.7C105.4 169 106.6 168 107.5 166.5C108.8 164.5 109.4 162.2 109.9 159.9C110.6 156.3 110.8 146.9 109.3 143.7Z" fill="white" stroke="#222221" stroke-width="0.5" stroke-miterlimit="10"/>
<path d="M88.8 161.2C89.1 159.7 89.2 158.1 89.8 156.7C90.5 155.2 92 154.9 92.8 153.6C94.4 150.9 94.3 147.6 97.7 146.1C101.2 144.5 105.5 146.8 109 145.4C111.3 144.6 112.9 142.2 112.9 139.8C112.9 138.5 112.5 137.3 112 136.1C111.4 134.7 110.7 133.3 109.4 132.4C107.7 131.2 105.4 131.1 103.4 131.5C101.3 131.9 99.3 132.6 97.2 132.6C94.5 132.6 91.9 131.6 89.3 132.1C86.8 132.5 84.7 134.4 83.9 136.8C83.2 139 83.1 141.2 81.7 143.1C80.3 145.2 78.9 146.9 78.8 149.5C78.8 151.7 80.4 153.7 81.2 155.7C81.9 157.4 82.3 159.3 83.1 161C83.9 162.7 85.4 164.3 87.3 164.4C87.6 164.4 87.9 164.4 88.1 164.2C88.6 163.9 88.6 163.2 88.5 162.6C88.5 162.7 88.6 162.1 88.8 161.2Z" fill="black"/>
<path d="M97.1 169.3C97.2 169.3 97.4 169.4 97.5 169.4C100.1 169.9 102.9 170 105.4 169.1C106.1 169.2 106 169.8 105.9 170.8C105.7 172.2 105.6 173.7 105.5 175.1C102.6 173.1 99.8 171.2 96.9 169.2C97 169.3 97.1 169.3 97.1 169.3Z" fill="#222221"/>
<path d="M99.6 161.7C100.2 162.9 101.4 163.7 102.7 163.7C103.9 163.7 105.1 163 105.8 161.9L99.6 161.7Z" stroke="#222221" stroke-width="0.5" stroke-miterlimit="10"/>
<path d="M93.2 156.8C92.6 153.9 89.6 151.5 86.6 152.8C83.7 154 82.7 158.7 84.7 161.1C85.8 162.3 87.5 162.9 89.1 162.5" fill="white"/>
<path d="M93.2 156.8C92.6 153.9 89.6 151.5 86.6 152.8C83.7 154 82.7 158.7 84.7 161.1C85.8 162.3 87.5 162.9 89.1 162.5" stroke="#222221" stroke-width="0.5" stroke-miterlimit="10"/>
<path d="M87.8 155.6C88.7 155.5 89.7 155.9 90.3 156.6C90.9 157.3 91.1 158.4 90.8 159.2" stroke="#222221" stroke-width="0.5" stroke-miterlimit="10"/>
<path d="M162 130.7C162.7 131.1 164.2 130.7 164.8 130.5C165.6 130.2 166.4 129.7 167 129C168.1 127.7 167.7 126.1 167 124.7C165.8 126 164.4 127.2 162.9 128.3C162.5 128.6 162 128.9 161.8 129.4C161.4 130 161.6 130.5 162 130.7Z" fill="white"/>
<path d="M162.7 128.1C162.6 128.1 162.4 128.2 162.3 128.2C161.9 127.1 161.9 126 161.6 124.9C161.4 124 161.2 123.1 161 122.1C160.8 121.2 160.6 120.3 160.4 119.4C160.3 118.8 159.8 117.6 160.4 117.2C160.6 117.1 160.8 117 161 117C162.2 116.8 163.5 116.6 164.8 116.7C166.1 116.8 167.3 117.2 168.3 118C168.9 118.5 169.4 119.2 169.3 120C169.2 120.8 168.5 121.4 167.8 121.9C167.3 122.2 166.8 122.6 166.4 123C166.3 123.1 166.9 123.8 166.9 124C166.9 124.4 166 125.2 165.7 125.5C164.9 126.5 163.9 127.7 162.7 128.1Z" fill="black"/>
<path d="M166.9 123.9C165.8 125.8 163.9 127.5 162.1 128.4" stroke="#222221" stroke-width="0.5" stroke-miterlimit="10"/>
<path d="M118.2 207.5C118.5 205.6 118.7 203.6 119 201.7L118.2 207.5Z" fill="#FCA351"/>
<path d="M118.2 207.5C118.5 205.6 118.7 203.6 119 201.7" stroke="black" stroke-width="0.5" stroke-miterlimit="10"/>
<path d="M104.9 177.7C104.1 177.5 103.2 177.3 102.4 177C102.4 179.1 101.5 180.9 99.7 182C97.8 183.1 95.3 183.2 93.2 183C89.3 182.6 84.2 180.3 82.4 176.5C81.2 176.9 79.9 177.3 78.7 177.5C79.8 179.5 80.9 181.3 82.7 182.7C83.8 183.5 84.9 184.2 86.1 184.8C88.6 186 91.3 186.7 94.1 186.8C96.9 186.9 100 186.4 102.3 184.8C104.4 183.3 105.6 180.5 105.6 177.9C105.3 177.8 105.1 177.8 104.9 177.7Z" fill="black"/>
<path d="M160.6 280C161.1 282.7 162.9 285.4 165.6 286.2C172.6 288.4 177.7 279.8 173 274.5C168.9 269.8 159.3 273.2 160.6 280Z" fill="#222221"/>
<path d="M145.5 307.1C144.9 303.6 144.3 300 143.9 296.5C143.2 300.3 142.4 304 141.7 307.8C143 307.6 144.2 307.3 145.5 307.1Z" fill="#222221"/>
<path d="M150.6 160.7C150.6 160.7 150.6 160.8 150.5 160.8L150.6 160.7Z" fill="black"/>
<path d="M421.6 206.2C421.5 205.7 421.4 205.2 421.3 204.8C420.5 202.2 418.2 200.3 415.6 199.6C413 198.9 410.2 199.3 407.7 200.4C404.4 201.9 401.8 204.5 398.9 206.6C394.1 210 388.9 211.9 385.5 216.9C381.9 222.3 379 227.9 377.9 234.3C377.8 234.8 377.8 235.2 377.7 235.7C377.9 234 380.8 231.4 381.9 230.4C383.5 228.7 385.4 227.3 387.3 226.1C391.6 223.5 396.2 222.3 401.1 221.9C409.7 221.1 416.5 220.5 420.6 212C421.4 210 421.8 208.1 421.6 206.2Z" fill="#FEE99E" stroke="black" stroke-width="0.5" stroke-miterlimit="10"/>
<path d="M401.9 212.8C394.2 216.1 386.4 220.4 381.6 227.5C376.3 235.3 374.4 243.6 373.6 252.9C372.9 259.9 372.3 267 371.6 274" stroke="black" stroke-width="0.5" stroke-miterlimit="10"/>
<path d="M388.6 165.2C385.2 163.2 380.5 163.2 376.9 165C372 167.4 368.8 172.4 367.2 177.6C365.6 182.8 365.4 188.3 364.9 193.8C364 204.5 362.3 215.3 363.3 226C363.7 231 365.1 235.8 366 240.7C366.3 242.4 367.2 249.6 369.4 249.7C370.1 249.7 370.7 249.3 371 248.7C371.1 248.4 371.5 248.4 371.8 248.5C372.2 248.6 372.6 248.6 373 248.4C373.6 248 374 247.4 374.3 246.7C378.7 237.2 382.4 227.3 385.2 217.2C386.5 212.7 387.8 208.2 388 203.6C388.2 198.9 388.7 194.1 390 189.5C391 185.9 392.6 182.4 393.3 178.7C394 175 393.9 170.9 391.7 167.8C390.8 166.7 389.8 165.8 388.6 165.2Z" fill="#FEE99E" stroke="black" stroke-width="0.5" stroke-miterlimit="10"/>
<path d="M377.1 194.6L368.4 272.7" stroke="#1C0C03" stroke-width="0.5" stroke-miterlimit="10"/>
<path d="M359.4 226.6C356.5 218.2 350.2 211.8 342 211.2C339.1 211 336.1 211.2 333.2 210.7C330.4 210.2 327.6 209.1 324.8 209.6C318.7 210.8 316 219.2 319.7 224C321.6 226.5 324.8 227.9 327.9 228.4C331 228.9 334.2 228.7 337.4 228.8C341.4 228.9 345.5 229.6 349.1 231.4C355 234.4 358.3 242 360.4 248C361.1 249.8 361.7 251.1 361.8 254.1C361.4 252.5 362 249.5 362 247.8C362 245.5 362 243.2 361.9 241C361.7 236.7 361.2 232.3 360 228.2C359.7 227.7 359.5 227.2 359.4 226.6Z" fill="#FCA351" stroke="black" stroke-width="0.5" stroke-miterlimit="10"/>
<path d="M362.4 269.6C361.9 264.2 361.7 247.2 360.4 242C359.2 237.1 357.5 232.2 354.5 228.3C351.5 224.4 347.1 221.6 342.6 221.9" stroke="#1C0C03" stroke-width="0.5" stroke-miterlimit="10"/>
<path d="M352.8 259.6H385L383.1 274C382.1 281.8 376.1 287.6 369 287.6C362 287.6 356 281.9 354.9 274.1L352.8 259.6Z" fill="#E0ADAD"/>
<path d="M320 398.1V287.7H407.7V398.1" stroke="#222221" stroke-width="0.5" stroke-miterlimit="10"/>
<path d="M314 316.3H414.8" stroke="#222221" stroke-width="0.5" stroke-miterlimit="10"/>
<path d="M314 344.8H414.8" stroke="#222221" stroke-width="0.5" stroke-miterlimit="10"/>
<path d="M314 373.4H414.8" stroke="#222221" stroke-width="0.5" stroke-miterlimit="10"/>
<path d="M368 298.8C368 301.2 366.1 303.1 363.7 303.1C361.3 303.1 359.4 301.2 359.4 298.8C359.4 296.4 361.3 294.5 363.7 294.5C366 294.5 368 296.4 368 298.8Z" stroke="#222221" stroke-width="0.5" stroke-miterlimit="10"/>
<path d="M368 328.3C368 330.7 366.1 332.6 363.7 332.6C361.3 332.6 359.4 330.7 359.4 328.3C359.4 325.9 361.3 324 363.7 324C366 324 368 325.9 368 328.3Z" stroke="#222221" stroke-width="0.5" stroke-miterlimit="10"/>
<path d="M368 357.9C368 360.3 366.1 362.2 363.7 362.2C361.3 362.2 359.4 360.3 359.4 357.9C359.4 355.5 361.3 353.6 363.7 353.6C366 353.5 368 355.5 368 357.9Z" stroke="#222221" stroke-width="0.5" stroke-miterlimit="10"/>
<path d="M368 387.4C368 389.8 366.1 391.7 363.7 391.7C361.3 391.7 359.4 389.8 359.4 387.4C359.4 385 361.3 383.1 363.7 383.1C366 383 368 385 368 387.4Z" stroke="#222221" stroke-width="0.5" stroke-miterlimit="10"/>
<path d="M368 298.8C368 301.2 366.1 303.1 363.7 303.1C361.3 303.1 359.4 301.2 359.4 298.8" fill="#161111"/>
<path d="M368 328.3C368 330.7 366.1 332.6 363.7 332.6C361.3 332.6 359.4 330.7 359.4 328.3" fill="#161111"/>
<path d="M368 357.9C368 360.3 366.1 362.2 363.7 362.2C361.3 362.2 359.4 360.3 359.4 357.9" fill="#161111"/>
<path d="M368 387.4C368 389.8 366.1 391.7 363.7 391.7C361.3 391.7 359.4 389.8 359.4 387.4" fill="#161111"/>
<path d="M113.5 14.6001C138.7 14.6001 159.2 24.1001 159.2 35.8001C159.2 42.7001 152.5 47.5001 146.9 50.2001C142.7 52.3001 138.1 53.8001 133.5 54.8001C127.3 56.2001 120.8 57.0001 114.3 57.1001C113.7 63.9001 111 70.5001 106.5 75.7001C104.8 77.6001 102.7 79.5001 100.1 79.8001C104.3 73.0001 106.3 64.9001 105.9 56.9001C97.7 56.3001 89.5 54.4001 82.1 51.2001C75.9 48.5001 67.8 43.5001 67.8 35.8001C67.8 24.1001 88.3 14.6001 113.5 14.6001Z" fill="#7696EA" stroke="black" stroke-width="0.5" stroke-miterlimit="10"/>
<path d="M145.1 34.2001C144.7 38.0001 141.3 41.1001 137.6 41.1001C134 41.1001 130.6 37.8001 130.3 34.0001C130.2 32.6001 130.6 30.9001 131.8 30.3001C133.1 29.7001 134.6 30.7001 135.1 32.0001C135.6 33.3001 135.4 34.8001 134.8 36.2001C133.1 40.2001 128.9 42.8001 124.7 42.3001C120.6 41.8001 116.9 38.3001 116.1 34.0001C115.8 32.5001 116 30.8001 117.2 29.9001C118.7 28.9001 120.8 30.1001 121.3 31.9001C121.8 33.7001 121.1 35.6001 120 37.0001C117.8 40.1001 114 41.6001 110.4 41.5001C108.8 41.4001 106.7 41.0001 105.3 40.1001C103.3 38.7001 101.3 34.1001 102.9 31.7001C103.2 31.2001 103.7 30.9001 104.2 30.9001C104.6 30.9001 104.9 31.1001 105.2 31.4001C105.9 32.0001 106.2 33.1001 106.3 34.0001C106.4 36.0001 105.2 38.3001 104 39.8001C101.6 42.6001 97.5 43.4001 94.3 41.9001C91 40.5001 88.8 37.0001 88.4 33.3001C88.3 31.9001 88.8 30.1001 90.2 30.1001C91.2 30.2001 91.8 31.3001 92 32.3001C92.6 35.2001 91.7 38.4001 89.7 40.5001C87.7 42.6001 84.7 43.5001 81.9 42.9001" stroke="black" stroke-width="0.5" stroke-miterlimit="10"/>
<path d="M406.9 19.8001H365.9V83.8001H406.9V19.8001Z" fill="#FEE99E" stroke="black" stroke-width="0.5" stroke-miterlimit="10"/>
<path d="M406.9 92.7001H365.9V13.6001H406.9V92.7001Z" stroke="#3A434B" stroke-width="0.5" stroke-miterlimit="10"/>
<path d="M388.9 88.0001C388.9 89.5001 387.8 90.7001 386.4 90.7001C385 90.7001 383.9 89.5001 383.9 88.0001C383.9 86.5001 385 85.3001 386.4 85.3001C387.8 85.3001 388.9 86.5001 388.9 88.0001Z" fill="black"/>
<path d="M385.4 31.9001C375.7 33.4001 369.1 42.5001 370.6 52.2001" stroke="#3A434B" stroke-width="0.5" stroke-miterlimit="10"/>
<path d="M386.2 37.1001C379.4 38.2001 374.7 44.6001 375.8 51.4001" stroke="#3A434B" stroke-width="0.5" stroke-miterlimit="10"/>
<path d="M386.8 41.0001C382.2 41.7001 379 46.1001 379.7 50.7001" stroke="#3A434B" stroke-width="0.5" stroke-miterlimit="10"/>
<path d="M387.5 45.5001C385.3 45.8001 383.8 47.9001 384.2 50.1001" stroke="#3A434B" stroke-width="0.5" stroke-miterlimit="10"/>
<path d="M383.6 67.7001C385.1 66.7001 386.5 65.6001 387.8 64.4001C389.4 63.0001 391 61.5001 392.4 60.1001C393.7 58.7001 394.9 57.4001 395.9 55.9001C397.2 54.3001 398.3 52.5001 399.5 50.7001C400.4 49.2001 401.3 47.6001 402.1 46.0001C402.5 45.2001 402.5 44.8001 402.1 43.9001C401.2 41.9001 398.9 40.6001 396.7 39.9001C396.2 39.7001 395.7 40.0001 395.5 40.4001C394.7 42.3001 393.7 44.1001 392.7 45.9001C392.3 46.6001 392 47.2001 391.6 47.9001C391.4 48.3001 391.5 48.8001 391.8 49.1001C392.8 50.0001 393.9 50.7001 395.1 51.1001C395.5 51.3001 395.7 51.7001 395.6 52.1001C395.2 52.7001 394.8 53.3001 394.3 53.9001C394.1 54.2001 393.9 54.4001 393.7 54.6001C393.6 54.7001 393.5 54.8001 393.4 55.0001C393.1 55.4001 392.8 55.7001 392.5 56.1001C392.5 56.2001 392.4 56.2001 392.4 56.3001C392.1 56.7001 391.8 57.0001 391.5 57.4001L391.4 57.5001C390.5 58.5001 389.6 59.4001 388.6 60.3001C388.2 60.5001 387.7 60.4001 387.5 60.0001C386.9 58.9001 386 57.9001 385 57.1001C384.7 56.8001 384.2 56.8001 383.8 57.1001C383.2 57.5001 382.6 58.0001 382 58.5001C380.4 59.7001 378.7 60.9001 377 62.1001C376.6 62.4001 376.4 62.9001 376.6 63.4001C377.6 65.4001 379.2 67.5001 381.3 68.1001C382.4 68.3001 382.8 68.2001 383.6 67.7001Z" fill="#007CFF" stroke="black" stroke-width="0.5" stroke-miterlimit="10"/>
<path d="M29.4 171C42.5444 171 53.2 160.344 53.2 147.2C53.2 134.056 42.5444 123.4 29.4 123.4C16.2556 123.4 5.59998 134.056 5.59998 147.2C5.59998 160.344 16.2556 171 29.4 171Z" fill="#FEE99E" stroke="black" stroke-width="0.5" stroke-miterlimit="10"/>
<path d="M29.4 171C39.3963 171 47.5 160.344 47.5 147.2C47.5 134.056 39.3963 123.4 29.4 123.4C19.4036 123.4 11.3 134.056 11.3 147.2C11.3 160.344 19.4036 171 29.4 171Z" stroke="black" stroke-width="0.5" stroke-miterlimit="10"/>
<path d="M29.4 171C33.1003 171 36.0999 160.344 36.0999 147.2C36.0999 134.056 33.1003 123.4 29.4 123.4C25.6996 123.4 22.7 134.056 22.7 147.2C22.7 160.344 25.6996 171 29.4 171Z" stroke="black" stroke-width="0.5" stroke-miterlimit="10"/>
<path d="M29.4 191.1C42.5444 191.1 53.2 183.668 53.2 174.5C53.2 165.332 42.5444 157.9 29.4 157.9C16.2556 157.9 5.59998 165.332 5.59998 174.5C5.59998 183.668 16.2556 191.1 29.4 191.1Z" stroke="black" stroke-width="0.5" stroke-miterlimit="10"/>
<path d="M29.4 137C42.5444 137 53.2 129.568 53.2 120.4C53.2 111.232 42.5444 103.8 29.4 103.8C16.2556 103.8 5.59998 111.232 5.59998 120.4C5.59998 129.568 16.2556 137 29.4 137Z" stroke="black" stroke-width="0.5" stroke-miterlimit="10"/>
<path d="M2 148.5H55.6" stroke="black" stroke-width="0.5" stroke-miterlimit="10"/>
<path d="M309.4 71.5001C308.7 71.6001 308 72.0001 307.5 72.6001C307 73.2001 306.8 74.0001 307 74.7001" fill="white"/>
<path d="M309.4 71.5001C308.7 71.6001 308 72.0001 307.5 72.6001C307 73.2001 306.8 74.0001 307 74.7001" stroke="#222221" stroke-width="0.5" stroke-miterlimit="10"/>
<path d="M328 165.5C327.6 165.4 327.3 165.3 326.9 165.1C325.9 164.6 325.3 163.9 324.1 163.9C323.4 163.9 322.6 164.5 322.7 165.2C322.7 165.5 322.9 165.8 323.1 166C324 166.9 325.2 167.5 326.1 168.4C326.6 168.9 326.9 169.5 327.4 170C329.7 172.1 332.9 170.2 334.9 168.6C335.1 168.4 335.4 168.2 335.4 167.8C335.4 167.6 335.3 167.4 335.2 167.2C334.7 166.5 333.8 166.1 333 166C332.2 165.8 331.3 165.8 330.4 165.8C329.8 165.9 328.9 165.8 328 165.5Z" fill="white" stroke="#222221" stroke-width="0.5" stroke-miterlimit="10"/>
<path d="M234.8 70.9001C234.5 65.6001 234.4 60.4001 234.2 55.0001C234.4 49.8001 236.9 45.0001 237.9 39.9001C238 39.4001 238.1 38.9001 237.8 38.4001C237.6 37.9001 236.8 37.6001 236.4 38.0001C235.7 39.4001 235 41.6001 233.1 42.0001C232 38.1001 236.2 33.6001 233.6 30.3001C231.6 27.8001 227.3 28.7001 225.5 31.1001C223.7 33.5001 223.7 36.7001 223.5 39.7001C222.9 49.6001 220.8 60.4001 218.4 70.9001H234.8Z" fill="white" stroke="#222221" stroke-width="0.5" stroke-miterlimit="10"/>
<path d="M259.5 2.4001H197.5V41.4001H259.5V2.4001Z" fill="#FCA351" stroke="black" stroke-width="0.5" stroke-miterlimit="10"/>
<path d="M259.5 2.4001C259.5 2.4001 230.8 20.1001 228.5 21.9001L197.5 2.4001" stroke="black" stroke-width="0.5" stroke-miterlimit="10"/>
<path d="M234.2 55.0001C234.3 52.1001 235.1 49.4001 236 46.7001C236.4 45.3001 236.9 44.0001 237.3 42.6001C237.5 42.0001 237.7 41.5001 237.8 40.9001C237.9 40.3001 238 39.6001 238.3 39.1001C238.4 38.9001 238.5 38.8001 238.6 38.6001C238.7 38.4001 238.7 38.2001 238.6 38.0001C238.4 37.7001 238 37.7001 237.7 37.8001C237.2 37.9001 236.8 38.3001 236.4 38.6001C235.4 39.8001 235.1 41.6001 233.2 42.0001" fill="white"/>
<path d="M234.2 55.0001C234.3 52.1001 235.1 49.4001 236 46.7001C236.4 45.3001 236.9 44.0001 237.3 42.6001C237.5 42.0001 237.7 41.5001 237.8 40.9001C237.9 40.3001 238 39.6001 238.3 39.1001C238.4 38.9001 238.5 38.8001 238.6 38.6001C238.7 38.4001 238.7 38.2001 238.6 38.0001C238.4 37.7001 238 37.7001 237.7 37.8001C237.2 37.9001 236.8 38.3001 236.4 38.6001C235.4 39.8001 235.1 41.6001 233.2 42.0001" stroke="#222221" stroke-width="0.5" stroke-miterlimit="10"/>
<path d="M255.9 383.5C255.8 383.9 255.6 384.3 255.3 384.6C255 384.9 254.4 385.1 254 385.2C249.9 386.1 245.7 386.9 241.5 387.4C242.7 378.1 242.3 368.5 244.2 359.3C245 355.5 246.3 351.6 249.3 349.1C252.4 346.6 257 346.3 260.4 348.2C266.5 351.7 263 358 261.7 363C260 370 258 376.8 255.9 383.5Z" fill="white" stroke="#222221" stroke-width="0.5" stroke-miterlimit="10"/>
<path d="M257.1 383.3C255 383.7 252.9 383.8 250.9 383.7C247.8 383.6 244.6 383.1 241.7 381.7C240.7 382.3 239.6 383.5 238.4 384C234.4 385.7 230.4 387.5 226.4 389.2C223.4 390.5 220.3 391.8 217.7 393.8C217.1 394.3 216.4 394.8 216.2 395.6C215.4 398.9 223.5 397.9 225.2 397.9C229.6 397.9 233.9 397.4 238.3 397.4C242 397.4 245.7 397.5 249.4 397.3C251.6 397.2 255.1 398.2 256.7 396.5C258 395.2 257.9 392.4 257.5 390.8C257 388.3 257 385.7 257.1 383.3Z" fill="#161111"/>
<path d="M308.9 385.2C308.9 385.6 309 386 309.3 386.3C309.6 386.6 310.1 386.7 310.5 386.8C314.5 387.7 318.5 388.3 322.6 388.8C323.3 378.2 324 366.7 323.6 357.3C323.5 355.8 322.8 354.3 321.8 353.2C320.2 351.3 317.3 350.5 314.4 350.9C312.1 351.2 307.5 352.8 306.4 355C305.3 357.4 306.7 362.6 306.9 365C307.4 371.7 308.1 378.5 308.9 385.2Z" fill="white" stroke="#222221" stroke-width="0.5" stroke-miterlimit="10"/>
<path d="M307.4 84.0001C307.3 84.4001 307.3 84.7001 307.2 85.1001C306.3 90.8001 308.5 96.7001 307.3 102.5C306.5 106.6 303 114.9 297.9 115.4C296.6 115.5 295.3 113.8 294.6 112.9C292.2 110 290.3 106.6 289.9 102.9C289.7 101.1 289.9 99.3001 290 97.5001C290.2 94.9001 290.4 92.3001 290.7 89.7001C290.8 88.5001 290.9 87.3001 291.2 86.1001C291.7 83.9001 292.6 81.9001 294.1 80.2001C297.1 76.8001 301.5 76.5001 305.8 76.4001C306.3 76.4001 306.8 76.4001 307.2 76.7001C308 77.2001 308 78.3001 307.9 79.3001C307.8 80.9001 307.6 82.4001 307.4 84.0001Z" fill="white" stroke="#222221" stroke-width="0.5" stroke-miterlimit="10"/>
<path d="M297.4 89.7001C300.1 90.5001 307.1 91.6001 307.1 91.6001C307 90.2001 306.8 87.7001 306.9 86.3001C306.9 86.1001 307.1 84.9001 307.2 83.9001C307.3 83.0001 307.5 82.2001 307.5 82.2001C306.9 82.0001 306.2 81.7001 305.7 81.3001C305.4 81.0001 305.2 80.7001 304.9 80.4001C303 78.6001 300.1 78.2001 297.7 79.2001C296.3 79.8001 295.1 80.7001 294.2 81.9001C293.6 82.6001 293.2 83.4001 292.8 84.2001C292.4 85.1001 291.9 86.2001 291.8 87.1001C291.8 87.1001 291.8 87.4001 291.7 87.8001C293.8 88.5001 295.6 89.1001 297.4 89.7001Z" fill="#161111"/>
<path d="M290.9 61.5001C292.5 61.7001 294.1 61.9001 295.7 62.3001C297.1 62.7001 298.3 63.4001 299.7 63.7001C302.1 64.2001 305.8 64.8001 307.5 66.6001C309.4 68.5001 309.3 71.4001 309 73.9001C308.8 76.3001 308.4 78.7001 307.8 81.0001C306.9 84.8001 304.7 87.8001 301.1 89.4001C298.6 90.5001 295.6 90.8001 293 90.2001C289 89.2001 286.8 85.9001 286.2 81.2001C286.1 80.4001 286 77.6001 286 76.8001C286 74.3001 286.5 71.6001 286.8 69.1001C287.1 66.8001 287.3 64.5001 288.3 62.4001C288.4 62.1001 288.6 61.8001 288.8 61.7001C289.2 61.4001 289.7 61.4001 290.1 61.5001C290.4 61.5001 290.6 61.5001 290.9 61.5001Z" fill="white" stroke="#222221" stroke-width="0.5" stroke-miterlimit="10"/>
<path d="M288.8 54.9001C290.1 54.4001 291.6 54.4001 293 54.5001C295.5 54.7001 298 54.8001 300.6 55.0001C302.7 55.1001 304.8 55.2001 306.8 56.1001C309.2 57.3001 311.3 59.4001 312.1 62.0001C312.7 63.9001 312.6 65.9001 312.4 67.9001C312.2 69.8001 311.9 71.6001 311.5 73.4001C311.1 75.1001 310.3 77.1001 308.4 77.4001C305.8 77.9001 305.2 74.7001 305.3 72.9001C305.4 71.9001 305.4 70.9001 305.5 69.9001C305.5 69.3001 305.6 68.6001 305.4 68.0001C305.1 67.0001 304.2 66.3001 303.2 65.9001C302.2 65.5001 301.2 65.5001 300.1 65.4001C296.8 65.2001 293.5 65.1001 290.3 64.4001C289.3 64.1001 288.3 63.8001 287.4 63.2001C285.3 61.7001 285.8 57.5001 287.4 55.7001C287.8 55.4001 288.3 55.1001 288.8 54.9001Z" fill="#161111"/>
<path d="M285.7 74.3001C285.7 74.5001 285.8 74.7001 285.9 74.8001C287 73.4001 286.8 70.4001 287.1 68.7001C287.5 66.7001 288.1 64.6001 289.6 63.2001C290 62.8001 290.5 62.4001 290.8 61.9001C291.1 61.4001 291.3 60.7001 290.9 60.2001C290.5 59.7001 289.7 59.6001 289.1 59.8001C284.9 60.8001 285.2 66.1001 285.4 69.5001C285.5 71.1001 285.4 72.9001 285.7 74.3001Z" fill="#161111"/>
<path d="M305.9 79.4001C306.8 79.8001 307.9 79.9001 308.9 79.6001C311.1 78.8001 312.2 75.6001 310.7 73.8001C310 72.9001 308.8 72.4001 307.7 72.5001C306.6 72.6001 305.5 73.3001 304.9 74.3001" fill="white"/>
<path d="M305.9 79.4001C306.8 79.8001 307.9 79.9001 308.9 79.6001C311.1 78.8001 312.2 75.6001 310.7 73.8001C310 72.9001 308.8 72.4001 307.7 72.5001C306.6 72.6001 305.5 73.3001 304.9 74.3001" stroke="#222221" stroke-width="0.5" stroke-miterlimit="10"/>
<path d="M332.1 259.5C332.6 243 332.9 227 330.3 210.6C329.2 203.6 323.4 179.3 314.5 178C314 177.9 313.5 178 313.2 178.1C312.7 175.6 311.8 173.3 310.5 171.2C306.7 165 299.7 160.5 292.5 158.8C284.6 156.9 274.9 158 271.4 167.1C269.6 171.8 270 176.5 267.9 181.1C261.9 193.9 261.1 206.6 259.3 220.6C257.2 237.2 255 253.8 252.7 270.4C248.4 301.9 243.7 333.5 238.8 364.9C242.1 365.7 245.4 366.3 248.7 366.7C254.5 367.4 260.4 367.2 266.2 366.5C271.9 337.9 277.9 309.4 284.4 280.9C287.6 266.7 290.3 252.8 293.7 239.3C296 261.4 297.9 283.5 299.3 305.6C300 316.9 300.5 328.2 300.9 339.5C301.2 348.9 302.9 359.1 302.6 368.2C309.3 369.4 317.2 368.3 324.1 367.8C324.9 367.7 330.7 367 330.8 366.2C332.6 346.4 332.5 330.4 332.9 309.6C333.2 294.1 331.6 274.8 332.1 259.5Z" fill="#7696EA" stroke="black" stroke-width="0.5" stroke-miterlimit="10"/>
<path d="M325.4 356.5C325.4 350.1 325.4 343.8 325.4 337.4C325.4 324.7 325.2 311.9 325.1 299.2C324.9 286.5 324.6 273.7 324.2 261C323.8 248.7 323.5 236.3 322.8 223.9C322.1 211.4 320.8 197.9 314.4 186.8C314.3 186.5 313.8 186.7 313.9 187C317.3 198 319.3 209.3 320 220.8C320.7 233 321 245.3 321.4 257.5C322.1 282.7 322.5 307.8 322.6 333C322.6 340 322.6 347.1 322.6 354.1C322.6 357.7 322.6 361.3 322.5 364.9C322.5 368.4 322.2 372 322.7 375.5C322.8 376.5 324.6 376.5 324.8 375.5C325.3 372.3 325.2 369.1 325.2 365.9C325.4 362.7 325.4 359.6 325.4 356.5Z" fill="black"/>
<path d="M290.6 80.5001C290.7 82.8001 292.4 84.6001 294.5 84.7001C296.7 84.8001 298.5 83.0001 298.7 80.8001L290.6 80.5001Z" fill="white" stroke="#222221" stroke-width="0.5" stroke-miterlimit="10"/>
<path d="M262.5 168.7C261.3 177.8 260.1 187 258.7 196.1C261.1 196.1 263.5 197.4 265.9 197.9C268.8 198.6 271.8 199.1 274.8 199.5C281 200.4 287.2 200.9 293.4 201.1C296.4 201.2 329.9 200 329.8 199.4C329.2 195.5 328.5 191.5 328.3 187.6C328 178.7 327.6 169.8 327.3 160.9C326.7 145.3 330.9 130.1 330.3 114.5C330.2 112.8 325.4 110.6 325.4 108.9C325.2 104.7 323.4 101.6 320.2 99.0001C319.8 98.7001 319.3 98.3001 318.8 98.1001C318 97.8001 317.1 97.7001 316.2 97.7001C314 97.6001 311.6 97.4001 309.5 97.3001C308.7 97.3001 308.4 97.1001 307.7 96.7001C307.8 99.7001 306.3 103.1 303.9 104.9C300.4 107.5 295.6 105.9 292.9 103C292.2 102.3 291.6 101.4 291.1 100.5C290.6 99.6001 290.1 98.6001 290 97.6001C279.7 100.4 267.3 100.6 256.7 100.1C251.6 99.8001 244.5 99.2001 241.2 95.3001C234.3 87.2001 236.6 65.4001 237.6 55.7001C230.6 55.9001 225.1 55.6001 218.2 54.8001C215.8 69.1001 213.3 88.4001 214.9 102.8C217.2 124.8 249.9 130.3 267.2 127.9C267.5 131.3 267 135 266.6 138.4C266.2 141.8 265.5 145.2 265.1 148.7C264.2 155.3 263.4 162 262.5 168.7Z" fill="#007CFF" stroke="black" stroke-width="0.5" stroke-miterlimit="10"/>
<path d="M306.7 395.7V395.8C306.8 396.2 306.8 396.5 307.1 396.7C307.3 396.8 307.6 396.9 307.8 396.9C317.6 397.3 327.2 397.7 336.9 398C339.1 398.1 348.4 398.1 349 394.9C349.1 394.2 348.7 393.4 348.2 392.9C347.6 392.4 346.9 392.1 346.2 391.8C341.8 390.1 336.8 389.1 332.6 387C331 386.2 329.6 385.1 328 384.3C327.2 383.9 323.7 381.2 322.9 381.4C318.1 382.5 312.6 383.3 307.7 382.4C306.4 386.8 306 391.3 306.7 395.7Z" fill="#161111"/>
<path d="M328.6 167.6C324.6 169.3 320.1 169.2 315.8 169.6C315.3 169.7 314.8 170 314.5 170.4C314.2 170.8 314.2 171.2 314.3 171.6C314.3 171.7 314.7 172.5 314.9 172.3C314.4 172.7 314 173.3 314.1 174C314.1 174.6 314.7 175.3 315.3 175.2C315.1 175.4 315.1 175.8 315.2 176C315.3 176.3 315.6 176.4 315.8 176.6C316.5 177 317.2 177.2 317.9 177.2C316.8 177.2 317.8 178.7 318.2 179C319.1 179.5 320.6 179.6 321.6 179.7C324.1 179.9 326.7 179.8 329.2 179.2C333 178.3 336.6 176.3 340.3 175.3C342.1 174.8 344 174.5 345.8 174.2C347.3 174 348.9 174.1 350.4 173.5C353.2 172.4 356.1 171.9 358.2 169.6C360.1 167.5 360.7 163.9 358.8 161.8C357.4 160.2 355 159.7 352.8 160.1C352.6 160.1 352.4 160.2 352.3 160.2C350 160.7 348 162 345.9 163.1C341.4 165.3 336.1 166.1 331.1 166.1" fill="white"/>
<path d="M328.6 167.6C324.6 169.3 320.1 169.2 315.8 169.6C315.3 169.7 314.8 170 314.5 170.4C314.2 170.8 314.2 171.2 314.3 171.6C314.3 171.7 314.7 172.5 314.9 172.3C314.4 172.7 314 173.3 314.1 174C314.1 174.6 314.7 175.3 315.3 175.2C315.1 175.4 315.1 175.8 315.2 176C315.3 176.3 315.6 176.4 315.8 176.6C316.5 177 317.2 177.2 317.9 177.2C316.8 177.2 317.8 178.7 318.2 179C319.1 179.5 320.6 179.6 321.6 179.7C324.1 179.9 326.7 179.8 329.2 179.2C333 178.3 336.6 176.3 340.3 175.3C342.1 174.8 344 174.5 345.8 174.2C347.3 174 348.9 174.1 350.4 173.5C353.2 172.4 356.1 171.9 358.2 169.6C360.1 167.5 360.7 163.9 358.8 161.8C357.4 160.2 355 159.7 352.8 160.1C352.6 160.1 352.4 160.2 352.3 160.2C350 160.7 348 162 345.9 163.1C341.4 165.3 336.1 166.1 331.1 166.1" stroke="#222221" stroke-width="0.5" stroke-miterlimit="10"/>
<path d="M319.8 123.4C325.8 124.1 343.1 127.9 350 133.3C354.6 136.9 357.8 142.8 356.4 148.5C355.4 152.2 352.6 155.2 349.3 157.2C346 159.2 342.2 160.2 338.5 161.2C340.8 167 342 173.3 342.1 179.5C342.1 180.1 357.9 175.8 359.3 175.2C364.4 173.2 368.4 170.5 372.5 167C380.3 160.5 383.9 150.5 382.2 140.5C378.9 121 359.8 107.8 341.7 102C331.3 98.7001 320.4 97.6001 309.6 97.2001" fill="#007CFF"/>
<path d="M319.8 123.4C325.8 124.1 343.1 127.9 350 133.3C354.6 136.9 357.8 142.8 356.4 148.5C355.4 152.2 352.6 155.2 349.3 157.2C346 159.2 342.2 160.2 338.5 161.2C340.8 167 342 173.3 342.1 179.5C342.1 180.1 357.9 175.8 359.3 175.2C364.4 173.2 368.4 170.5 372.5 167C380.3 160.5 383.9 150.5 382.2 140.5C378.9 121 359.8 107.8 341.7 102C331.3 98.7001 320.4 97.6001 309.6 97.2001" stroke="black" stroke-width="0.5" stroke-miterlimit="10"/>
<path d="M317.5 177.1C320.7 177.4 323.6 177.2 327.7 176.2L317.5 177.1Z" fill="white"/>
<path d="M317.5 177.1C320.7 177.4 323.6 177.2 327.7 176.2" stroke="#222221" stroke-width="0.5" stroke-miterlimit="10"/>
<path d="M315.3 175.2C319.6 175.1 323.3 174.6 327.2 173.5L315.3 175.2Z" fill="white"/>
<path d="M315.3 175.2C319.6 175.1 323.3 174.6 327.2 173.5" stroke="#222221" stroke-width="0.5" stroke-miterlimit="10"/>
<path d="M314.9 172.3C319.1 172.3 323.4 171.5 327.5 170.4L314.9 172.3Z" fill="white"/>
<path d="M314.9 172.3C319.1 172.3 323.4 171.5 327.5 170.4" stroke="#222221" stroke-width="0.5" stroke-miterlimit="10"/>
<path d="M293.7 239.3C293.5 228.6 293.2 217.8 292 206.2" stroke="#131834" stroke-width="0.5" stroke-miterlimit="10"/>
<path d="M375.5 147.3C375.7 149.6 377.4 151.8 379.6 152.4C382 153 384.5 151.8 386.4 150.2C387.5 149.2 388.4 148 388.9 146.6C391.7 137.9 374.6 136.6 375.5 147.3Z" fill="#161111"/>
<path d="M220.3 103.7C223 104.1 225.3 106.2 225.9 108.8C226.5 111.4 225.1 114.4 222.7 115.5C221.8 115.9 220.8 116.1 219.9 116.2C217.9 116.3 215.8 115.9 214.3 114.5C209.4 110 214.6 102.9 220.3 103.7Z" fill="#161111"/>
<path d="M303.2 131.9C303.1 133.6 303.2 135.7 303.3 137.4C303.4 141.9 306.2 147.5 311.7 146.5C313.2 146.2 314.5 145.2 315.3 143.9C316.1 142.6 316.5 141.1 316.8 139.6C317.3 137.1 317.2 134.5 317.5 132C316.1 131.9 303.2 131.7 303.2 131.9Z" fill="#161111"/>
<path d="M292.7 229.3C292.2 232.2 291.8 235.1 291.4 238C291 241 290.9 244.1 290.5 247.1C290.3 248.4 290.2 249.6 290.1 250.9C290.1 251.8 290.1 252.7 290.1 253.6C290.9 253.7 291.3 249.9 291.5 249.1C292 247.7 292.1 246.1 292.5 244.7C292.8 243.6 293.3 240.4 293.7 239.3C293.4 235.2 293.6 229.8 293.4 225.1C293.2 226.5 292.9 227.9 292.7 229.3Z" fill="#161111"/>
<path d="M267.4 129.3C267.5 127.3 267.6 125.3 267.7 123.3L267.4 129.3Z" fill="#007CFF"/>
<path d="M267.4 129.3C267.5 127.3 267.6 125.3 267.7 123.3" stroke="black" stroke-width="0.5" stroke-miterlimit="10"/>
<path d="M0.299988 397.5H412.5" stroke="black" stroke-width="0.5" stroke-miterlimit="10"/>
</svg>
